<svg xmlns="http://www.w3.org/2000/svg" xmlns:xlink="http://www.w3.org/1999/xlink" viewBox="0 0 1100 710" width="1100" height="710"><defs><style>.cls-1{fill:none;}.cls-2{fill:#0c0f4b;}.cls-3{fill:#558bff;}.cls-4{isolation:isolate;}.cls-5{fill:#fecc90;}.cls-6{fill:#151848;}.cls-7{fill:#ff885e;}.cls-8{clip-path:url(#clip-path);}.cls-9{fill:#fff;}.cls-10{fill:#9dd3ff;}.cls-11{clip-path:url(#clip-path-2);}.cls-12{clip-path:url(#clip-path-3);}.cls-13{mix-blend-mode:multiply;}.cls-14{clip-path:url(#clip-path-4);}.cls-15{opacity:0.5;}.cls-16{clip-path:url(#clip-path-5);}.cls-17{clip-path:url(#clip-path-6);}</style><clipPath id="clip-path"><rect class="cls-1" x="384.36" y="350.96" width="256.64" height="305.5"/></clipPath><clipPath id="clip-path-2"><path class="cls-2" d="M474.33,583.19H294.38a9.2,9.2,0,0,1-9-7.17l-6.89-30.64a9.18,9.18,0,0,1,9-11.2H481.22a9.18,9.18,0,0,1,9,11.2L483.29,576A9.18,9.18,0,0,1,474.33,583.19Z"/></clipPath><clipPath id="clip-path-3"><circle class="cls-1" cx="765.88" cy="410.61" r="60.52"/></clipPath><clipPath id="clip-path-4"><path class="cls-1" d="M688,206.66c-2.47-6.1-10.24-9.06-19.22-8.08,1.61-3.1,2-6,.72-8.13-3.13-5.43-15.19-4.34-26.93,2.44q-2.21,1.28-4.17,2.67c-5.4-1.47-14.7,2.76-22.75,10.81-9,9-13.26,19.64-10,24.54a48.48,48.48,0,0,0-1.38,11.74c0,13.55,5.08,24.54,11.36,24.54s11.35-11,11.35-24.54c0-.61,0-1.2,0-1.79a18.7,18.7,0,0,1,11.54-5.51l21.47-2.06c.88,0,1.78-.13,2.68-.25l.6-.06a7.69,7.69,0,0,0,1.53-.31,37.15,37.15,0,0,0,6.49-1.95C683.77,225.63,691.27,214.86,688,206.66Z"/></clipPath><clipPath id="clip-path-5"><path class="cls-1" d="M643.3,219.08l-4.69,1.13c-4.93-5-10.58,4.38-15.61,6.25-8.63,3.21-10.82,17.75-11.35,26.25a5.89,5.89,0,0,0,5.88,6.24l2.26,14.34c1.49,9.53-4.18,17.71-4.18,17.71,0,9.75,7.91,16.69,17.66,16.69A17.66,17.66,0,0,0,650.92,290v-9.27a13.61,13.61,0,0,0,13-13.58V223.59Z"/></clipPath><clipPath id="clip-path-6"><path class="cls-3" d="M688,206.66c-2.47-6.1-10.24-9.06-19.22-8.08,1.61-3.1,2-6,.72-8.13-3.13-5.43-15.19-4.34-26.93,2.44q-2.21,1.28-4.17,2.67c-5.4-1.47-14.7,2.76-22.75,10.81-9,9-13.26,19.64-10,24.54a48.48,48.48,0,0,0-1.38,11.74c0,13.55,2.12-6.29,6.07,7.33,1.75,6,11.31-2.51,11.31-2.51s5.32-6,5.3-6.61a18.7,18.7,0,0,1,11.54-5.51l21.47-2.06c.88,0,1.78-.13,2.68-.25l.6-.06a7.69,7.69,0,0,0,1.53-.31,37.15,37.15,0,0,0,6.49-1.95C683.77,225.63,691.27,214.86,688,206.66Z"/></clipPath></defs><g class="cls-4"><g id="Layer_1" data-name="Layer 1"><path class="cls-5" d="M790.61,317.2c-2.08.08-60.83,26.08-60.83,26.08s-18.51,3.73-18.51,8.15-9.38,2.67-9.38,2.67l5,10.54c8.23,5.39,26.66,9.84,38.62,1.31l46.14-34.41Z"/><path class="cls-2" d="M643.93,306.94s51.48,57.57,63.51,59.81,25.08-22.24,15.79-24-42.11-43.21-42.11-43.21L651,303.77C648.4,304.13,642.1,305.06,643.93,306.94Z"/><polygon class="cls-5" points="693.96 677.83 699.37 694.51 710.58 691.97 706.82 677.83 693.96 677.83"/><path class="cls-6" d="M745.43,703.82v4.45a1,1,0,0,1-1,1H702a2.66,2.66,0,0,1-2.67-2.66V694.52L710.58,692C715.72,692,745.43,698.68,745.43,703.82Z"/><path class="cls-5" d="M566.78,492.54l-59.21-98.21a14.29,14.29,0,0,0-12.23-6.92h-222a14.3,14.3,0,0,0-12.24,6.92l-59.2,98.21-16.11,7.64a32.37,32.37,0,0,0-18.49,29.24V632.16a24.31,24.31,0,0,0,24.3,24.31H577.07a24.31,24.31,0,0,0,24.31-24.31V529.42a32.36,32.36,0,0,0-18.5-29.24Z"/><path class="cls-7" d="M179.23,656.47H384.36v-56.6h-217v44.7A11.89,11.89,0,0,0,179.23,656.47Z"/><g class="cls-8"><path class="cls-7" d="M566.78,492.54l-59.21-98.21a14.29,14.29,0,0,0-12.23-6.92h-222a14.3,14.3,0,0,0-12.24,6.92l-59.2,98.21-16.11,7.64a32.37,32.37,0,0,0-18.49,29.24V632.16a24.31,24.31,0,0,0,24.3,24.31H577.07a24.31,24.31,0,0,0,24.31-24.31V529.42a32.36,32.36,0,0,0-18.5-29.24Z"/></g><rect class="cls-2" x="308.7" y="215.55" width="172.13" height="172.13"/><rect class="cls-3" x="287.89" y="215.55" width="172.13" height="172.13"/><rect class="cls-9" x="318.29" y="337.45" width="111.33" height="31.01"/><rect class="cls-9" x="281.41" y="271.64" width="111.33" height="37.58" transform="translate(627.51 -46.64) rotate(90)"/><rect class="cls-2" x="191.35" y="646.41" width="62.83" height="62.83" rx="10.31"/><rect class="cls-2" x="514.54" y="646.41" width="62.83" height="62.83" rx="10.31"/><rect class="cls-9" x="167.34" y="634.56" width="434.04" height="32.34"/><path class="cls-2" d="M167.34,599.87h434a0,0,0,0,1,0,0v47.44a9.16,9.16,0,0,1-9.16,9.16H176.49a9.16,9.16,0,0,1-9.16-9.16V599.87A0,0,0,0,1,167.34,599.87Z"/><path class="cls-10" d="M290.43,402.48H478.28a14.29,14.29,0,0,1,12.24,6.91l50.12,83.15H228.07l50.13-83.15A14.29,14.29,0,0,1,290.43,402.48Z"/><path class="cls-7" d="M200.86,534.18h55.83a8.1,8.1,0,0,1,8.1,8.09v17.09a8.1,8.1,0,0,1-9.26,8l-52.17-7.56a8.13,8.13,0,0,1-6.4-5.11l-3.65-9.52A8.09,8.09,0,0,1,200.86,534.18Z"/><path class="cls-5" d="M567.85,534.18H512a8.09,8.09,0,0,0-8.1,8.09v17.09a8.09,8.09,0,0,0,9.26,8l52.17-7.56a8.11,8.11,0,0,0,6.39-5.11l3.66-9.52A8.09,8.09,0,0,0,567.85,534.18Z"/><rect class="cls-7" x="290.31" y="621.36" width="188.1" height="13.62" rx="5.24"/><rect class="cls-7" x="209.75" y="621.36" width="26.03" height="13.62" rx="5.24"/><rect class="cls-7" x="532.94" y="621.36" width="26.03" height="13.62" rx="5.24"/><path class="cls-2" d="M474.33,583.19H294.38a9.2,9.2,0,0,1-9-7.17l-6.89-30.64a9.18,9.18,0,0,1,9-11.2H481.22a9.18,9.18,0,0,1,9,11.2L483.29,576A9.18,9.18,0,0,1,474.33,583.19Z"/><g class="cls-11"><rect class="cls-7" x="251.91" y="539.97" width="264.9" height="7.49"/><rect class="cls-7" x="251.91" y="554.94" width="264.9" height="7.49"/><rect class="cls-7" x="251.91" y="569.92" width="264.9" height="7.49"/><rect class="cls-5" x="251.91" y="539.97" width="132.45" height="7.49"/><rect class="cls-5" x="251.91" y="554.94" width="132.45" height="7.49"/><rect class="cls-5" x="251.91" y="569.92" width="132.45" height="7.49"/></g><path class="cls-7" d="M595.42,484.11l-30.14,1.62a11.21,11.21,0,0,1-11.34-14.45L557.06,461a11.23,11.23,0,0,1,10.73-8h27A11.23,11.23,0,0,1,606,464.25v8.66A11.22,11.22,0,0,1,595.42,484.11Z"/><path class="cls-5" d="M175.07,484.11l30.15,1.62a11.22,11.22,0,0,0,11.34-14.45L213.44,461a11.24,11.24,0,0,0-10.74-8h-27a11.22,11.22,0,0,0-11.22,11.22v8.66A11.21,11.21,0,0,0,175.07,484.11Z"/><polygon class="cls-9" points="337.32 402.48 460.02 492.54 398.67 492.54 321.86 402.48 337.32 402.48"/><polygon class="cls-9" points="305.92 402.48 369.68 492.54 342.41 492.54 296.26 402.48 305.92 402.48"/><polygon class="cls-3" points="677.84 477.74 713.02 681.17 694.75 682.27 620.16 483.29 640.47 442.32 677.84 477.74"/><polygon class="cls-2" points="697.09 589.22 697.95 593.81 668.91 613.02 667.33 608.94 697.09 589.22"/><polygon class="cls-2" points="640.32 537.05 643.14 544.57 676.3 562.55 678.56 563.8 680.12 564.66 681.35 565.34 686.22 561.15 640.32 537.05"/><rect class="cls-10" x="689.73" y="677.03" width="27.44" height="9.95" rx="2.65"/><polygon class="cls-5" points="627.15 613.47 616.11 623.38 618.65 634.59 637.39 626.1 627.15 613.47"/><path class="cls-6" d="M606.8,669.44h-4.45a1,1,0,0,1-1-1V626.05a2.67,2.67,0,0,1,2.66-2.67H616.1l2.55,11.21C618.65,639.73,611.94,669.44,606.8,669.44Z"/><rect class="cls-6" x="633.81" y="407.64" width="377.12" height="225.58" rx="16.21" transform="translate(1340.56 -303.36) rotate(89.84)"/><rect class="cls-10" x="616.15" y="407.64" width="377.12" height="225.58" rx="16.66" transform="translate(1322.94 -285.69) rotate(89.84)"/><rect class="cls-3" x="834.98" y="366.22" width="75" height="50" transform="translate(1262.96 -481.59) rotate(89.95)"/><path class="cls-9" d="M872.48,377.41a13.79,13.79,0,1,1-9.78,4,13.82,13.82,0,0,1,9.78-4h0m0-5h0a18.79,18.79,0,0,0,0,37.57h0a18.79,18.79,0,0,0,0-37.57Z"/><rect class="cls-9" x="822.7" y="495.59" width="131.13" height="17.53" transform="translate(1391.89 -384.33) rotate(89.95)"/><rect class="cls-9" x="747.52" y="542.27" width="224.34" height="17.53" transform="translate(1410.01 -309.11) rotate(89.95)"/><rect class="cls-6" x="759.98" y="529.55" width="102.98" height="19.55" transform="translate(1350.11 -272.58) rotate(89.95)"/><rect class="cls-6" x="739.11" y="512.48" width="68.78" height="19.55" transform="translate(1295.11 -251.67) rotate(89.95)"/><rect class="cls-6" x="717.43" y="624.79" width="112.33" height="19.55" transform="translate(1407.51 -139.56) rotate(89.95)"/><rect class="cls-6" x="644.17" y="569" width="181.75" height="19.55" transform="translate(1313.21 -156.75) rotate(89.95)"/><circle class="cls-9" cx="765.88" cy="410.61" r="60.52"/><g class="cls-12"><circle class="cls-6" cx="777.27" cy="409.34" r="24.7"/><path class="cls-6" d="M720.67,371.67a37.72,37.72,0,1,1,.06,75.44"/><rect class="cls-2" x="675.61" y="402.03" width="75.44" height="14.73" transform="translate(1122.14 -304.28) rotate(89.95)"/></g><path class="cls-3" d="M634.68,630.8,705.33,584a26.45,26.45,0,0,0,7-37.33l-58.13-68.88a6.06,6.06,0,0,0-2.93-2.23l-25.86-12.36a6.19,6.19,0,0,0-4-.05L595,471.88a5.55,5.55,0,0,0-1.63.82c-8.82,6.69-4.92,23,1.8,34.82a29.57,29.57,0,0,0,11.63,11.37l72,39a6.14,6.14,0,0,1,1.09,10.05l-52.74,45.53a6.1,6.1,0,0,0-2.13,4.65v7.5A6.22,6.22,0,0,0,634.68,630.8Z"/><rect class="cls-10" x="615.14" y="618.96" width="26.51" height="10.14" rx="2.65" transform="translate(970.91 -192.66) rotate(67.95)"/><path class="cls-2" d="M585.51,481.87s3-47.38,2.73-94.19c-.25-42.48-15-78.47-7.54-83.3,15.7-10.1,60.88-14.62,60.91-15.43,0,0,35.58-.36,41,13.1s-.15,175.48-.15,175.48Z"/><ellipse class="cls-3" cx="615.61" cy="242.79" rx="11.35" ry="24.54"/><g class="cls-13"><g class="cls-14"><path class="cls-6" d="M685.64,196.9v0c0,11.11-11.14,20.37-26,22.51a45.08,45.08,0,0,1-6.55.47,44.16,44.16,0,0,1-12.84-1.87h0c-34.89-7.39-30.24,31-30.25,36.48s-2.12,3.09-9.06-8.28l7.9,31.6,90.2-36.61,2.12-38.74Z"/></g></g><path class="cls-5" d="M650.25,280.81H624.72l.11-57.2,18.58-4.52L664,223.61l-.11,43.58A13.62,13.62,0,0,1,650.25,280.81Z"/><path class="cls-5" d="M615.61,291c0,9.75,7.91,16.69,17.66,16.69a17.66,17.66,0,0,0,17.65-17.66l-9.58-3.41Z"/><path class="cls-5" d="M650.92,274.2v15.85l-35.31,1s5.67-8.18,4.18-17.71c-2.26-14.35,23.67-2,23.67-2Z"/><path class="cls-5" d="M617.53,259h0a5.88,5.88,0,0,1-5.88-6.23c.53-8.5,2.72-23,11.35-26.25,12.36-4.6,28.46,24.15,28.46,24.15l-1.21,30.18-21.93,2c-4.23,0-8.23-3-8.17-7.2Z"/><g class="cls-15"><g class="cls-16"><path class="cls-7" d="M644.76,215.14l-18-.8c-4.94-5-6.2,10.25-11.23,12.12-8.63,3.21-10.81,17.75-11.35,26.25A5.89,5.89,0,0,0,610,259l2.26,14.34c1.5,9.53-4.18,17.71-4.18,17.71,0,9.75,46.83,31.75,56.59,31.75,8.36,0-9.49-14.28-18-26.74a65.6,65.6,0,0,1-5.08-9.25,4.34,4.34,0,0,1,4.13-6.12l4.51.17c7.2-.35,6.09-6.34,6.09-13.63v-42Z"/></g></g><path class="cls-5" d="M662.74,247.85s8.7,9.65,4.28,11.08-4,3.57-5.8,2.65S662.74,247.85,662.74,247.85Z"/><path class="cls-3" d="M688,206.66c-2.47-6.1-10.24-9.06-19.22-8.08,1.61-3.1,2-6,.72-8.13-3.13-5.43-15.19-4.34-26.93,2.44q-2.21,1.28-4.17,2.67c-5.4-1.47-14.7,2.76-22.75,10.81-9,9-13.26,19.64-10,24.54a48.48,48.48,0,0,0-1.38,11.74c0,13.55,2.12-6.29,6.07,7.33,1.75,6,11.31-2.51,11.31-2.51s5.32-6,5.3-6.61a18.7,18.7,0,0,1,11.54-5.51l21.47-2.06c.88,0,1.78-.13,2.68-.25l.6-.06a7.69,7.69,0,0,0,1.53-.31,37.15,37.15,0,0,0,6.49-1.95C683.77,225.63,691.27,214.86,688,206.66Z"/><g class="cls-17"><path class="cls-6" d="M685.64,196.9v0c0,11.11-11.14,20.37-26,22.51a45.08,45.08,0,0,1-6.55.47,44.16,44.16,0,0,1-12.84-1.87h0c-34.89-7.39-30.24,31-30.25,36.48s-2.12,3.09-9.06-8.28l7.9,31.6,90.2-36.61,2.12-38.74Z"/></g><ellipse class="cls-5" cx="616.64" cy="250.86" rx="5.6" ry="8.07"/><g class="cls-15"><ellipse class="cls-7" cx="616.64" cy="250.86" rx="5.6" ry="8.07"/></g><path class="cls-7" d="M595.42,484.11l-30.14,1.62a11.21,11.21,0,0,1-11.34-14.45L557.06,461a11.23,11.23,0,0,1,10.73-8h27A11.23,11.23,0,0,1,606,464.25v8.66A11.22,11.22,0,0,1,595.42,484.11Z"/><path class="cls-5" d="M590.34,412.34c-1.32-1.62-57.46-32.83-57.46-32.83s-14.14-12.53-17.66-9.87-7.65,16-7.65,16h0c-2.48,8,1,15.28,8.52,17.72l63.43,18.47Z"/><path class="cls-2" d="M580.7,304.38s-61,47.34-64.09,59.18,20.44,26.57,22.83,17.43,46-39,46-39l-2.11-30.33C583.19,309,582.71,302.68,580.7,304.38Z"/><path class="cls-5" d="M590.34,412.34s24,23.42,10.47,32.3-18.88,8.17-18.64,5.24,5.67-14.52,3.31-16.11-7.17-10.92-6-12Z"/><path class="cls-5" d="M577.92,422.11s-4.21,16.66,0,17.06,8.93-10.39,7.19-15.35-6.79-2.51-6.79-2.51Z"/><path class="cls-5" d="M790.5,317.2s33.46,2.63,28.71,18.14-9.29,18.36-11,16-4.93-14.79-7.76-14.5S788,333,788.23,331.4Z"/><path class="cls-5" d="M787.2,332.66s7.42,15.5,10.91,13.11.22-13.7-4.29-16.39S787,331.8,787,331.8Z"/></g></g></svg>
